<mxfile host="app.diagrams.net" agent="Mozilla/5.0 (X11; Linux x86_64; rv:133.0) Gecko/20100101 Firefox/133.0" version="25.0.3">
  <diagram name="Page-1" id="YGpwaGSPC6jVDZ84IKjX">
    <mxGraphModel dx="930" dy="406" grid="1" gridSize="10" guides="1" tooltips="1" connect="1" arrows="1" fold="1" page="1" pageScale="1" pageWidth="827" pageHeight="1169" math="0" shadow="0">
      <root>
        <mxCell id="0" />
        <mxCell id="1" parent="0" />
        <mxCell id="k4hLhiPzZIHAdQ_BkXDs-1" value="" style="ellipse;shape=cloud;whiteSpace=wrap;html=1;strokeColor=#FF6666;" parent="1" vertex="1">
          <mxGeometry y="120" width="360" height="340" as="geometry" />
        </mxCell>
        <mxCell id="k4hLhiPzZIHAdQ_BkXDs-2" value="&lt;font color=&quot;#ff6666&quot;&gt;H1&lt;/font&gt;" style="image;aspect=fixed;perimeter=ellipsePerimeter;html=1;align=center;shadow=0;dashed=0;spacingTop=3;image=img/lib/active_directory/mainframe_host.svg;" parent="1" vertex="1">
          <mxGeometry x="50" y="235" width="36" height="50" as="geometry" />
        </mxCell>
        <mxCell id="k4hLhiPzZIHAdQ_BkXDs-3" value="S1" style="whiteSpace=wrap;html=1;aspect=fixed;" parent="1" vertex="1">
          <mxGeometry x="140" y="240" width="40" height="40" as="geometry" />
        </mxCell>
        <mxCell id="k4hLhiPzZIHAdQ_BkXDs-4" value="S2" style="whiteSpace=wrap;html=1;aspect=fixed;" parent="1" vertex="1">
          <mxGeometry x="240" y="240" width="40" height="40" as="geometry" />
        </mxCell>
        <mxCell id="k4hLhiPzZIHAdQ_BkXDs-5" value="S4" style="whiteSpace=wrap;html=1;aspect=fixed;" parent="1" vertex="1">
          <mxGeometry x="140" y="350" width="40" height="40" as="geometry" />
        </mxCell>
        <mxCell id="k4hLhiPzZIHAdQ_BkXDs-6" value="S3" style="whiteSpace=wrap;html=1;aspect=fixed;" parent="1" vertex="1">
          <mxGeometry x="240" y="350" width="40" height="40" as="geometry" />
        </mxCell>
        <mxCell id="k4hLhiPzZIHAdQ_BkXDs-12" value="" style="ellipse;shape=cloud;whiteSpace=wrap;html=1;strokeColor=#FF66FF;" parent="1" vertex="1">
          <mxGeometry x="20" y="470" width="360" height="300" as="geometry" />
        </mxCell>
        <mxCell id="k4hLhiPzZIHAdQ_BkXDs-13" value="&lt;font color=&quot;#ff66ff&quot;&gt;H4&lt;/font&gt;" style="image;aspect=fixed;perimeter=ellipsePerimeter;html=1;align=center;shadow=0;dashed=0;spacingTop=3;image=img/lib/active_directory/mainframe_host.svg;" parent="1" vertex="1">
          <mxGeometry x="70" y="555" width="36" height="50" as="geometry" />
        </mxCell>
        <mxCell id="k4hLhiPzZIHAdQ_BkXDs-14" value="S11" style="whiteSpace=wrap;html=1;aspect=fixed;" parent="1" vertex="1">
          <mxGeometry x="140" y="560" width="40" height="40" as="geometry" />
        </mxCell>
        <mxCell id="k4hLhiPzZIHAdQ_BkXDs-15" value="S12" style="whiteSpace=wrap;html=1;aspect=fixed;" parent="1" vertex="1">
          <mxGeometry x="240" y="560" width="40" height="40" as="geometry" />
        </mxCell>
        <mxCell id="k4hLhiPzZIHAdQ_BkXDs-16" value="S13" style="whiteSpace=wrap;html=1;aspect=fixed;" parent="1" vertex="1">
          <mxGeometry x="240" y="670" width="40" height="40" as="geometry" />
        </mxCell>
        <mxCell id="k4hLhiPzZIHAdQ_BkXDs-20" value="" style="endArrow=none;html=1;rounded=0;" parent="1" source="k4hLhiPzZIHAdQ_BkXDs-15" target="k4hLhiPzZIHAdQ_BkXDs-16" edge="1">
          <mxGeometry width="50" height="50" relative="1" as="geometry">
            <mxPoint x="290" y="590" as="sourcePoint" />
            <mxPoint x="210" y="590" as="targetPoint" />
          </mxGeometry>
        </mxCell>
        <mxCell id="k4hLhiPzZIHAdQ_BkXDs-21" value="" style="ellipse;shape=cloud;whiteSpace=wrap;html=1;strokeColor=#66B2FF;" parent="1" vertex="1">
          <mxGeometry x="580" y="480" width="320" height="300" as="geometry" />
        </mxCell>
        <mxCell id="k4hLhiPzZIHAdQ_BkXDs-22" value="&lt;font color=&quot;#66b2ff&quot;&gt;H3&lt;/font&gt;" style="image;aspect=fixed;perimeter=ellipsePerimeter;html=1;align=center;shadow=0;dashed=0;spacingTop=3;image=img/lib/active_directory/mainframe_host.svg;" parent="1" vertex="1">
          <mxGeometry x="684" y="665" width="36" height="50" as="geometry" />
        </mxCell>
        <mxCell id="k4hLhiPzZIHAdQ_BkXDs-23" value="S8" style="whiteSpace=wrap;html=1;aspect=fixed;" parent="1" vertex="1">
          <mxGeometry x="680" y="560" width="40" height="40" as="geometry" />
        </mxCell>
        <mxCell id="k4hLhiPzZIHAdQ_BkXDs-24" value="S9" style="whiteSpace=wrap;html=1;aspect=fixed;" parent="1" vertex="1">
          <mxGeometry x="780" y="560" width="40" height="40" as="geometry" />
        </mxCell>
        <mxCell id="k4hLhiPzZIHAdQ_BkXDs-25" value="S10" style="whiteSpace=wrap;html=1;aspect=fixed;" parent="1" vertex="1">
          <mxGeometry x="780" y="670" width="40" height="40" as="geometry" />
        </mxCell>
        <mxCell id="k4hLhiPzZIHAdQ_BkXDs-28" value="" style="endArrow=none;html=1;rounded=0;" parent="1" source="k4hLhiPzZIHAdQ_BkXDs-24" target="k4hLhiPzZIHAdQ_BkXDs-23" edge="1">
          <mxGeometry width="50" height="50" relative="1" as="geometry">
            <mxPoint x="764" y="579.8199999999999" as="sourcePoint" />
            <mxPoint x="710" y="579.8199999999999" as="targetPoint" />
          </mxGeometry>
        </mxCell>
        <mxCell id="k4hLhiPzZIHAdQ_BkXDs-29" value="" style="endArrow=none;html=1;rounded=0;" parent="1" source="k4hLhiPzZIHAdQ_BkXDs-24" target="k4hLhiPzZIHAdQ_BkXDs-25" edge="1">
          <mxGeometry width="50" height="50" relative="1" as="geometry">
            <mxPoint x="810" y="590" as="sourcePoint" />
            <mxPoint x="730" y="590" as="targetPoint" />
          </mxGeometry>
        </mxCell>
        <mxCell id="k4hLhiPzZIHAdQ_BkXDs-30" value="" style="ellipse;shape=cloud;whiteSpace=wrap;html=1;strokeColor=#66FF66;" parent="1" vertex="1">
          <mxGeometry x="500" y="120" width="380" height="320" as="geometry" />
        </mxCell>
        <mxCell id="k4hLhiPzZIHAdQ_BkXDs-31" value="&lt;font color=&quot;#66ff66&quot;&gt;H2&lt;/font&gt;" style="image;aspect=fixed;perimeter=ellipsePerimeter;html=1;align=center;shadow=0;dashed=0;spacingTop=3;image=img/lib/active_directory/mainframe_host.svg;" parent="1" vertex="1">
          <mxGeometry x="764" y="235" width="36" height="50" as="geometry" />
        </mxCell>
        <mxCell id="k4hLhiPzZIHAdQ_BkXDs-32" value="S6" style="whiteSpace=wrap;html=1;aspect=fixed;" parent="1" vertex="1">
          <mxGeometry x="580" y="240" width="40" height="40" as="geometry" />
        </mxCell>
        <mxCell id="k4hLhiPzZIHAdQ_BkXDs-33" value="S5" style="whiteSpace=wrap;html=1;aspect=fixed;" parent="1" vertex="1">
          <mxGeometry x="680" y="240" width="40" height="40" as="geometry" />
        </mxCell>
        <mxCell id="k4hLhiPzZIHAdQ_BkXDs-34" value="S&lt;font color=&quot;#ff66ff&quot;&gt;7&lt;/font&gt;" style="whiteSpace=wrap;html=1;aspect=fixed;" parent="1" vertex="1">
          <mxGeometry x="680" y="350" width="40" height="40" as="geometry" />
        </mxCell>
        <mxCell id="k4hLhiPzZIHAdQ_BkXDs-35" value="" style="endArrow=none;html=1;rounded=0;" parent="1" source="k4hLhiPzZIHAdQ_BkXDs-34" target="k4hLhiPzZIHAdQ_BkXDs-32" edge="1">
          <mxGeometry width="50" height="50" relative="1" as="geometry">
            <mxPoint x="600" y="350" as="sourcePoint" />
            <mxPoint x="630" y="320" as="targetPoint" />
          </mxGeometry>
        </mxCell>
        <mxCell id="k4hLhiPzZIHAdQ_BkXDs-38" value="" style="endArrow=none;html=1;rounded=0;" parent="1" source="k4hLhiPzZIHAdQ_BkXDs-33" target="k4hLhiPzZIHAdQ_BkXDs-34" edge="1">
          <mxGeometry width="50" height="50" relative="1" as="geometry">
            <mxPoint x="710" y="270" as="sourcePoint" />
            <mxPoint x="630" y="270" as="targetPoint" />
          </mxGeometry>
        </mxCell>
        <mxCell id="k4hLhiPzZIHAdQ_BkXDs-40" value="" style="endArrow=none;html=1;rounded=0;" parent="1" source="k4hLhiPzZIHAdQ_BkXDs-15" target="k4hLhiPzZIHAdQ_BkXDs-6" edge="1">
          <mxGeometry width="50" height="50" relative="1" as="geometry">
            <mxPoint x="310" y="270" as="sourcePoint" />
            <mxPoint x="830" y="270" as="targetPoint" />
          </mxGeometry>
        </mxCell>
        <mxCell id="k4hLhiPzZIHAdQ_BkXDs-64" value="" style="endArrow=classic;html=1;rounded=0;strokeColor=#FF6666;entryX=0;entryY=0.25;entryDx=0;entryDy=0;" parent="1" target="k4hLhiPzZIHAdQ_BkXDs-3" edge="1">
          <mxGeometry width="50" height="50" relative="1" as="geometry">
            <mxPoint x="86" y="250" as="sourcePoint" />
            <mxPoint x="140" y="250" as="targetPoint" />
          </mxGeometry>
        </mxCell>
        <mxCell id="k4hLhiPzZIHAdQ_BkXDs-68" value="" style="endArrow=classic;html=1;rounded=0;strokeColor=#FF6666;exitX=1;exitY=0.25;exitDx=0;exitDy=0;" parent="1" source="k4hLhiPzZIHAdQ_BkXDs-3" edge="1">
          <mxGeometry width="50" height="50" relative="1" as="geometry">
            <mxPoint x="180" y="250" as="sourcePoint" />
            <mxPoint x="240" y="250.18000000000006" as="targetPoint" />
          </mxGeometry>
        </mxCell>
        <mxCell id="k4hLhiPzZIHAdQ_BkXDs-69" value="" style="endArrow=classic;html=1;rounded=0;strokeColor=#FF6666;" parent="1" source="k4hLhiPzZIHAdQ_BkXDs-6" target="k4hLhiPzZIHAdQ_BkXDs-23" edge="1">
          <mxGeometry width="50" height="50" relative="1" as="geometry">
            <mxPoint x="280" y="250" as="sourcePoint" />
            <mxPoint x="580" y="250" as="targetPoint" />
          </mxGeometry>
        </mxCell>
        <mxCell id="k4hLhiPzZIHAdQ_BkXDs-70" value="" style="endArrow=classic;html=1;rounded=0;strokeColor=#FF6666;" parent="1" edge="1">
          <mxGeometry width="50" height="50" relative="1" as="geometry">
            <mxPoint x="620" y="250" as="sourcePoint" />
            <mxPoint x="680" y="250.18000000000006" as="targetPoint" />
          </mxGeometry>
        </mxCell>
        <mxCell id="k4hLhiPzZIHAdQ_BkXDs-71" value="" style="endArrow=classic;html=1;rounded=0;strokeColor=#FF6666;" parent="1" edge="1">
          <mxGeometry width="50" height="50" relative="1" as="geometry">
            <mxPoint x="720" y="250" as="sourcePoint" />
            <mxPoint x="760" y="250" as="targetPoint" />
          </mxGeometry>
        </mxCell>
        <mxCell id="k4hLhiPzZIHAdQ_BkXDs-72" value="" style="endArrow=classic;html=1;rounded=0;strokeColor=#FF6666;" parent="1" edge="1">
          <mxGeometry width="50" height="50" relative="1" as="geometry">
            <mxPoint x="150" y="280" as="sourcePoint" />
            <mxPoint x="150" y="350" as="targetPoint" />
          </mxGeometry>
        </mxCell>
        <mxCell id="k4hLhiPzZIHAdQ_BkXDs-73" value="" style="endArrow=classic;html=1;rounded=0;strokeColor=#FF6666;" parent="1" edge="1">
          <mxGeometry width="50" height="50" relative="1" as="geometry">
            <mxPoint x="150" y="390" as="sourcePoint" />
            <mxPoint x="150" y="560" as="targetPoint" />
          </mxGeometry>
        </mxCell>
        <mxCell id="k4hLhiPzZIHAdQ_BkXDs-74" value="" style="endArrow=classic;html=1;rounded=0;strokeColor=#FF6666;" parent="1" edge="1">
          <mxGeometry width="50" height="50" relative="1" as="geometry">
            <mxPoint x="140" y="570" as="sourcePoint" />
            <mxPoint x="106.0000000000066" y="570" as="targetPoint" />
            <Array as="points" />
          </mxGeometry>
        </mxCell>
        <mxCell id="k4hLhiPzZIHAdQ_BkXDs-75" value="" style="endArrow=classic;html=1;rounded=0;strokeColor=#FF6666;" parent="1" edge="1">
          <mxGeometry width="50" height="50" relative="1" as="geometry">
            <mxPoint x="180" y="380" as="sourcePoint" />
            <mxPoint x="240" y="380.18000000000006" as="targetPoint" />
          </mxGeometry>
        </mxCell>
        <mxCell id="k4hLhiPzZIHAdQ_BkXDs-76" value="" style="endArrow=classic;html=1;rounded=0;strokeColor=#FF6666;" parent="1" source="k4hLhiPzZIHAdQ_BkXDs-23" target="k4hLhiPzZIHAdQ_BkXDs-25" edge="1">
          <mxGeometry width="50" height="50" relative="1" as="geometry">
            <mxPoint x="708.1818181818182" y="605" as="sourcePoint" />
            <mxPoint x="771.818181818182" y="675" as="targetPoint" />
          </mxGeometry>
        </mxCell>
        <mxCell id="k4hLhiPzZIHAdQ_BkXDs-77" value="" style="endArrow=classic;html=1;rounded=0;strokeColor=#FF6666;" parent="1" source="k4hLhiPzZIHAdQ_BkXDs-25" target="k4hLhiPzZIHAdQ_BkXDs-22" edge="1">
          <mxGeometry width="50" height="50" relative="1" as="geometry">
            <mxPoint x="728" y="610" as="sourcePoint" />
            <mxPoint x="792" y="680" as="targetPoint" />
            <Array as="points" />
          </mxGeometry>
        </mxCell>
        <mxCell id="k4hLhiPzZIHAdQ_BkXDs-78" value="" style="endArrow=classic;html=1;rounded=0;strokeColor=#FF6666;" parent="1" edge="1">
          <mxGeometry width="50" height="50" relative="1" as="geometry">
            <mxPoint x="280" y="250" as="sourcePoint" />
            <mxPoint x="580" y="250" as="targetPoint" />
          </mxGeometry>
        </mxCell>
        <mxCell id="k4hLhiPzZIHAdQ_BkXDs-79" value="" style="endArrow=classic;html=1;rounded=0;strokeColor=#99FF99;" parent="1" source="k4hLhiPzZIHAdQ_BkXDs-31" target="k4hLhiPzZIHAdQ_BkXDs-33" edge="1">
          <mxGeometry width="50" height="50" relative="1" as="geometry">
            <mxPoint x="730" y="260" as="sourcePoint" />
            <mxPoint x="770" y="260" as="targetPoint" />
          </mxGeometry>
        </mxCell>
        <mxCell id="k4hLhiPzZIHAdQ_BkXDs-80" value="" style="endArrow=classic;html=1;rounded=0;strokeColor=#99FF99;" parent="1" source="k4hLhiPzZIHAdQ_BkXDs-33" target="k4hLhiPzZIHAdQ_BkXDs-32" edge="1">
          <mxGeometry width="50" height="50" relative="1" as="geometry">
            <mxPoint x="774" y="270" as="sourcePoint" />
            <mxPoint x="730" y="270" as="targetPoint" />
          </mxGeometry>
        </mxCell>
        <mxCell id="k4hLhiPzZIHAdQ_BkXDs-81" value="" style="endArrow=classic;html=1;rounded=0;strokeColor=#99FF99;" parent="1" source="k4hLhiPzZIHAdQ_BkXDs-32" target="k4hLhiPzZIHAdQ_BkXDs-4" edge="1">
          <mxGeometry width="50" height="50" relative="1" as="geometry">
            <mxPoint x="690" y="270" as="sourcePoint" />
            <mxPoint x="630" y="270" as="targetPoint" />
          </mxGeometry>
        </mxCell>
        <mxCell id="k4hLhiPzZIHAdQ_BkXDs-83" value="" style="endArrow=classic;html=1;rounded=0;strokeColor=#99FF99;" parent="1" source="k4hLhiPzZIHAdQ_BkXDs-4" target="k4hLhiPzZIHAdQ_BkXDs-3" edge="1">
          <mxGeometry width="50" height="50" relative="1" as="geometry">
            <mxPoint x="590" y="270" as="sourcePoint" />
            <mxPoint x="290" y="270" as="targetPoint" />
          </mxGeometry>
        </mxCell>
        <mxCell id="k4hLhiPzZIHAdQ_BkXDs-84" value="" style="endArrow=classic;html=1;rounded=0;strokeColor=#99FF99;" parent="1" source="k4hLhiPzZIHAdQ_BkXDs-3" target="k4hLhiPzZIHAdQ_BkXDs-2" edge="1">
          <mxGeometry width="50" height="50" relative="1" as="geometry">
            <mxPoint x="250" y="270" as="sourcePoint" />
            <mxPoint x="190" y="270" as="targetPoint" />
          </mxGeometry>
        </mxCell>
        <mxCell id="k4hLhiPzZIHAdQ_BkXDs-85" value="" style="endArrow=classic;html=1;rounded=0;strokeColor=#99FF99;" parent="1" source="k4hLhiPzZIHAdQ_BkXDs-33" target="k4hLhiPzZIHAdQ_BkXDs-34" edge="1">
          <mxGeometry width="50" height="50" relative="1" as="geometry">
            <mxPoint x="774" y="270" as="sourcePoint" />
            <mxPoint x="730" y="270" as="targetPoint" />
          </mxGeometry>
        </mxCell>
        <mxCell id="k4hLhiPzZIHAdQ_BkXDs-86" value="" style="endArrow=classic;html=1;rounded=0;strokeColor=#99FF99;" parent="1" source="k4hLhiPzZIHAdQ_BkXDs-34" target="k4hLhiPzZIHAdQ_BkXDs-23" edge="1">
          <mxGeometry width="50" height="50" relative="1" as="geometry">
            <mxPoint x="710" y="290" as="sourcePoint" />
            <mxPoint x="710" y="360" as="targetPoint" />
          </mxGeometry>
        </mxCell>
        <mxCell id="k4hLhiPzZIHAdQ_BkXDs-87" value="" style="endArrow=classic;html=1;rounded=0;strokeColor=#99FF99;" parent="1" edge="1">
          <mxGeometry width="50" height="50" relative="1" as="geometry">
            <mxPoint x="708.3618181818182" y="601" as="sourcePoint" />
            <mxPoint x="780" y="680" as="targetPoint" />
          </mxGeometry>
        </mxCell>
        <mxCell id="k4hLhiPzZIHAdQ_BkXDs-88" value="" style="endArrow=classic;html=1;rounded=0;strokeColor=#99FF99;exitX=0;exitY=0.25;exitDx=0;exitDy=0;entryX=1.037;entryY=0.326;entryDx=0;entryDy=0;entryPerimeter=0;" parent="1" source="k4hLhiPzZIHAdQ_BkXDs-25" target="k4hLhiPzZIHAdQ_BkXDs-22" edge="1">
          <mxGeometry width="50" height="50" relative="1" as="geometry">
            <mxPoint x="718.3618181818182" y="611" as="sourcePoint" />
            <mxPoint x="790" y="690" as="targetPoint" />
          </mxGeometry>
        </mxCell>
        <mxCell id="k4hLhiPzZIHAdQ_BkXDs-89" value="" style="endArrow=classic;html=1;rounded=0;strokeColor=#66B2FF;" parent="1" edge="1">
          <mxGeometry width="50" height="50" relative="1" as="geometry">
            <mxPoint x="719.9999999999873" y="700" as="sourcePoint" />
            <mxPoint x="780" y="700" as="targetPoint" />
            <Array as="points" />
          </mxGeometry>
        </mxCell>
        <mxCell id="k4hLhiPzZIHAdQ_BkXDs-90" value="" style="endArrow=classic;html=1;rounded=0;strokeColor=#66B2FF;entryX=1;entryY=0.75;entryDx=0;entryDy=0;exitX=0.25;exitY=0;exitDx=0;exitDy=0;" parent="1" source="k4hLhiPzZIHAdQ_BkXDs-25" target="k4hLhiPzZIHAdQ_BkXDs-23" edge="1">
          <mxGeometry width="50" height="50" relative="1" as="geometry">
            <mxPoint x="729.9999999999873" y="710" as="sourcePoint" />
            <mxPoint x="790" y="710" as="targetPoint" />
            <Array as="points" />
          </mxGeometry>
        </mxCell>
        <mxCell id="k4hLhiPzZIHAdQ_BkXDs-91" value="" style="endArrow=classic;html=1;rounded=0;strokeColor=#66B2FF;entryX=1;entryY=0.5;entryDx=0;entryDy=0;exitX=0;exitY=0;exitDx=0;exitDy=0;" parent="1" source="k4hLhiPzZIHAdQ_BkXDs-23" target="k4hLhiPzZIHAdQ_BkXDs-6" edge="1">
          <mxGeometry width="50" height="50" relative="1" as="geometry">
            <mxPoint x="800" y="680" as="sourcePoint" />
            <mxPoint x="730" y="600" as="targetPoint" />
            <Array as="points" />
          </mxGeometry>
        </mxCell>
        <mxCell id="k4hLhiPzZIHAdQ_BkXDs-92" value="" style="endArrow=classic;html=1;rounded=0;strokeColor=#66B2FF;" parent="1" source="k4hLhiPzZIHAdQ_BkXDs-6" target="k4hLhiPzZIHAdQ_BkXDs-4" edge="1">
          <mxGeometry width="50" height="50" relative="1" as="geometry">
            <mxPoint x="690" y="570" as="sourcePoint" />
            <mxPoint x="290" y="380" as="targetPoint" />
            <Array as="points" />
          </mxGeometry>
        </mxCell>
        <mxCell id="k4hLhiPzZIHAdQ_BkXDs-93" value="" style="endArrow=classic;html=1;rounded=0;strokeColor=#66B2FF;entryX=1;entryY=0.75;entryDx=0;entryDy=0;exitX=0;exitY=0.75;exitDx=0;exitDy=0;" parent="1" source="k4hLhiPzZIHAdQ_BkXDs-4" target="k4hLhiPzZIHAdQ_BkXDs-3" edge="1">
          <mxGeometry width="50" height="50" relative="1" as="geometry">
            <mxPoint x="270" y="360" as="sourcePoint" />
            <mxPoint x="270" y="290" as="targetPoint" />
            <Array as="points" />
          </mxGeometry>
        </mxCell>
        <mxCell id="k4hLhiPzZIHAdQ_BkXDs-94" value="" style="endArrow=classic;html=1;rounded=0;strokeColor=#66B2FF;entryX=1;entryY=0.75;entryDx=0;entryDy=0;exitX=0;exitY=0.75;exitDx=0;exitDy=0;" parent="1" source="k4hLhiPzZIHAdQ_BkXDs-3" target="k4hLhiPzZIHAdQ_BkXDs-2" edge="1">
          <mxGeometry width="50" height="50" relative="1" as="geometry">
            <mxPoint x="150" y="280" as="sourcePoint" />
            <mxPoint x="190" y="280" as="targetPoint" />
            <Array as="points" />
          </mxGeometry>
        </mxCell>
        <mxCell id="k4hLhiPzZIHAdQ_BkXDs-95" value="" style="endArrow=classic;html=1;rounded=0;strokeColor=#66B2FF;entryX=0.75;entryY=1;entryDx=0;entryDy=0;exitX=0.75;exitY=0;exitDx=0;exitDy=0;" parent="1" source="k4hLhiPzZIHAdQ_BkXDs-23" target="k4hLhiPzZIHAdQ_BkXDs-34" edge="1">
          <mxGeometry width="50" height="50" relative="1" as="geometry">
            <mxPoint x="800" y="680" as="sourcePoint" />
            <mxPoint x="730" y="600" as="targetPoint" />
            <Array as="points" />
          </mxGeometry>
        </mxCell>
        <mxCell id="k4hLhiPzZIHAdQ_BkXDs-96" value="" style="endArrow=classic;html=1;rounded=0;strokeColor=#66B2FF;entryX=0.75;entryY=1;entryDx=0;entryDy=0;exitX=0.75;exitY=0;exitDx=0;exitDy=0;" parent="1" source="k4hLhiPzZIHAdQ_BkXDs-34" target="k4hLhiPzZIHAdQ_BkXDs-33" edge="1">
          <mxGeometry width="50" height="50" relative="1" as="geometry">
            <mxPoint x="720" y="570" as="sourcePoint" />
            <mxPoint x="720" y="400" as="targetPoint" />
            <Array as="points" />
          </mxGeometry>
        </mxCell>
        <mxCell id="k4hLhiPzZIHAdQ_BkXDs-97" value="" style="endArrow=classic;html=1;rounded=0;strokeColor=#66B2FF;entryX=0;entryY=0.75;entryDx=0;entryDy=0;exitX=1;exitY=0.75;exitDx=0;exitDy=0;" parent="1" source="k4hLhiPzZIHAdQ_BkXDs-33" target="k4hLhiPzZIHAdQ_BkXDs-31" edge="1">
          <mxGeometry width="50" height="50" relative="1" as="geometry">
            <mxPoint x="720" y="360" as="sourcePoint" />
            <mxPoint x="720" y="290" as="targetPoint" />
            <Array as="points" />
          </mxGeometry>
        </mxCell>
        <mxCell id="k4hLhiPzZIHAdQ_BkXDs-98" value="" style="endArrow=classic;html=1;rounded=0;strokeColor=#66B2FF;" parent="1" source="k4hLhiPzZIHAdQ_BkXDs-23" target="k4hLhiPzZIHAdQ_BkXDs-15" edge="1">
          <mxGeometry width="50" height="50" relative="1" as="geometry">
            <mxPoint x="800" y="680" as="sourcePoint" />
            <mxPoint x="730" y="600" as="targetPoint" />
            <Array as="points" />
          </mxGeometry>
        </mxCell>
        <mxCell id="k4hLhiPzZIHAdQ_BkXDs-99" value="" style="endArrow=classic;html=1;rounded=0;strokeColor=#66B2FF;" parent="1" source="k4hLhiPzZIHAdQ_BkXDs-15" target="k4hLhiPzZIHAdQ_BkXDs-14" edge="1">
          <mxGeometry width="50" height="50" relative="1" as="geometry">
            <mxPoint x="690" y="590" as="sourcePoint" />
            <mxPoint x="290" y="590" as="targetPoint" />
            <Array as="points" />
          </mxGeometry>
        </mxCell>
        <mxCell id="k4hLhiPzZIHAdQ_BkXDs-100" value="" style="endArrow=classic;html=1;rounded=0;strokeColor=#66B2FF;entryX=1;entryY=0.5;entryDx=0;entryDy=0;exitX=0;exitY=0.5;exitDx=0;exitDy=0;" parent="1" source="k4hLhiPzZIHAdQ_BkXDs-14" target="k4hLhiPzZIHAdQ_BkXDs-13" edge="1">
          <mxGeometry width="50" height="50" relative="1" as="geometry">
            <mxPoint x="250" y="590" as="sourcePoint" />
            <mxPoint x="190" y="590" as="targetPoint" />
            <Array as="points" />
          </mxGeometry>
        </mxCell>
        <mxCell id="k4hLhiPzZIHAdQ_BkXDs-101" value="" style="endArrow=classic;html=1;rounded=0;strokeColor=#FF66FF;exitX=1;exitY=0.75;exitDx=0;exitDy=0;entryX=0;entryY=0.75;entryDx=0;entryDy=0;" parent="1" source="k4hLhiPzZIHAdQ_BkXDs-13" target="k4hLhiPzZIHAdQ_BkXDs-14" edge="1">
          <mxGeometry width="50" height="50" relative="1" as="geometry">
            <mxPoint x="150" y="590" as="sourcePoint" />
            <mxPoint x="116" y="590" as="targetPoint" />
            <Array as="points" />
          </mxGeometry>
        </mxCell>
        <mxCell id="k4hLhiPzZIHAdQ_BkXDs-102" value="" style="endArrow=classic;html=1;rounded=0;strokeColor=#FF66FF;exitX=0.5;exitY=0;exitDx=0;exitDy=0;entryX=0.5;entryY=1;entryDx=0;entryDy=0;" parent="1" source="k4hLhiPzZIHAdQ_BkXDs-14" target="k4hLhiPzZIHAdQ_BkXDs-5" edge="1">
          <mxGeometry width="50" height="50" relative="1" as="geometry">
            <mxPoint x="114" y="601" as="sourcePoint" />
            <mxPoint x="150" y="600" as="targetPoint" />
            <Array as="points" />
          </mxGeometry>
        </mxCell>
        <mxCell id="k4hLhiPzZIHAdQ_BkXDs-103" value="" style="endArrow=classic;html=1;rounded=0;strokeColor=#FF66FF;" parent="1" source="k4hLhiPzZIHAdQ_BkXDs-5" target="k4hLhiPzZIHAdQ_BkXDs-3" edge="1">
          <mxGeometry width="50" height="50" relative="1" as="geometry">
            <mxPoint x="170" y="570" as="sourcePoint" />
            <mxPoint x="170" y="400" as="targetPoint" />
            <Array as="points" />
          </mxGeometry>
        </mxCell>
        <mxCell id="k4hLhiPzZIHAdQ_BkXDs-104" value="" style="endArrow=classic;html=1;rounded=0;strokeColor=#FF66FF;entryX=0.75;entryY=1;entryDx=0;entryDy=0;exitX=0;exitY=1;exitDx=0;exitDy=0;" parent="1" source="k4hLhiPzZIHAdQ_BkXDs-3" target="k4hLhiPzZIHAdQ_BkXDs-2" edge="1">
          <mxGeometry width="50" height="50" relative="1" as="geometry">
            <mxPoint x="170" y="360" as="sourcePoint" />
            <mxPoint x="170" y="290" as="targetPoint" />
            <Array as="points" />
          </mxGeometry>
        </mxCell>
        <mxCell id="k4hLhiPzZIHAdQ_BkXDs-107" value="" style="endArrow=classic;html=1;rounded=0;strokeColor=#FF66FF;exitX=1;exitY=0;exitDx=0;exitDy=0;entryX=0;entryY=1;entryDx=0;entryDy=0;" parent="1" source="k4hLhiPzZIHAdQ_BkXDs-15" target="k4hLhiPzZIHAdQ_BkXDs-34" edge="1">
          <mxGeometry width="50" height="50" relative="1" as="geometry">
            <mxPoint x="188" y="610" as="sourcePoint" />
            <mxPoint x="252" y="680" as="targetPoint" />
            <Array as="points" />
          </mxGeometry>
        </mxCell>
        <mxCell id="k4hLhiPzZIHAdQ_BkXDs-108" value="" style="endArrow=classic;html=1;rounded=0;strokeColor=#FF66FF;entryX=0.25;entryY=1;entryDx=0;entryDy=0;exitX=0.25;exitY=0;exitDx=0;exitDy=0;" parent="1" source="k4hLhiPzZIHAdQ_BkXDs-34" target="k4hLhiPzZIHAdQ_BkXDs-33" edge="1">
          <mxGeometry width="50" height="50" relative="1" as="geometry">
            <mxPoint x="290" y="685" as="sourcePoint" />
            <mxPoint x="690" y="395" as="targetPoint" />
            <Array as="points" />
          </mxGeometry>
        </mxCell>
        <mxCell id="k4hLhiPzZIHAdQ_BkXDs-109" value="" style="endArrow=classic;html=1;rounded=0;strokeColor=#FF66FF;entryX=0.5;entryY=1;entryDx=0;entryDy=0;exitX=1;exitY=1;exitDx=0;exitDy=0;" parent="1" source="k4hLhiPzZIHAdQ_BkXDs-33" target="k4hLhiPzZIHAdQ_BkXDs-31" edge="1">
          <mxGeometry width="50" height="50" relative="1" as="geometry">
            <mxPoint x="700" y="360" as="sourcePoint" />
            <mxPoint x="700" y="290" as="targetPoint" />
            <Array as="points" />
          </mxGeometry>
        </mxCell>
        <mxCell id="k4hLhiPzZIHAdQ_BkXDs-110" value="" style="endArrow=classic;html=1;rounded=0;strokeColor=#FF66FF;entryX=0;entryY=0.75;entryDx=0;entryDy=0;exitX=1;exitY=0.75;exitDx=0;exitDy=0;" parent="1" source="k4hLhiPzZIHAdQ_BkXDs-14" target="k4hLhiPzZIHAdQ_BkXDs-15" edge="1">
          <mxGeometry width="50" height="50" relative="1" as="geometry">
            <mxPoint x="188" y="610" as="sourcePoint" />
            <mxPoint x="252" y="680" as="targetPoint" />
            <Array as="points" />
          </mxGeometry>
        </mxCell>
        <mxCell id="k4hLhiPzZIHAdQ_BkXDs-111" value="" style="endArrow=classic;html=1;rounded=0;strokeColor=#FF66FF;entryX=0;entryY=0.75;entryDx=0;entryDy=0;exitX=1;exitY=0.75;exitDx=0;exitDy=0;" parent="1" source="k4hLhiPzZIHAdQ_BkXDs-15" target="k4hLhiPzZIHAdQ_BkXDs-23" edge="1">
          <mxGeometry width="50" height="50" relative="1" as="geometry">
            <mxPoint x="190" y="600" as="sourcePoint" />
            <mxPoint x="250" y="600" as="targetPoint" />
            <Array as="points" />
          </mxGeometry>
        </mxCell>
        <mxCell id="k4hLhiPzZIHAdQ_BkXDs-112" value="" style="endArrow=classic;html=1;rounded=0;strokeColor=#FF66FF;entryX=0.5;entryY=0;entryDx=0;entryDy=0;exitX=1;exitY=0.5;exitDx=0;exitDy=0;" parent="1" source="k4hLhiPzZIHAdQ_BkXDs-23" target="k4hLhiPzZIHAdQ_BkXDs-25" edge="1">
          <mxGeometry width="50" height="50" relative="1" as="geometry">
            <mxPoint x="290" y="600" as="sourcePoint" />
            <mxPoint x="690" y="600" as="targetPoint" />
            <Array as="points" />
          </mxGeometry>
        </mxCell>
        <mxCell id="k4hLhiPzZIHAdQ_BkXDs-113" value="" style="endArrow=classic;html=1;rounded=0;strokeColor=#FF66FF;entryX=1;entryY=0;entryDx=0;entryDy=0;exitX=0;exitY=0;exitDx=0;exitDy=0;" parent="1" source="k4hLhiPzZIHAdQ_BkXDs-25" target="k4hLhiPzZIHAdQ_BkXDs-22" edge="1">
          <mxGeometry width="50" height="50" relative="1" as="geometry">
            <mxPoint x="730" y="590" as="sourcePoint" />
            <mxPoint x="810" y="680" as="targetPoint" />
            <Array as="points" />
          </mxGeometry>
        </mxCell>
        <mxCell id="BEHY-oOq_oAfsIoeJHm4-1" value="" style="endArrow=classic;html=1;rounded=0;strokeColor=#99FF99;exitX=0.25;exitY=1;exitDx=0;exitDy=0;entryX=0.986;entryY=0.419;entryDx=0;entryDy=0;entryPerimeter=0;" edge="1" parent="1" source="k4hLhiPzZIHAdQ_BkXDs-34" target="k4hLhiPzZIHAdQ_BkXDs-16">
          <mxGeometry width="50" height="50" relative="1" as="geometry">
            <mxPoint x="710" y="290" as="sourcePoint" />
            <mxPoint x="710" y="360" as="targetPoint" />
          </mxGeometry>
        </mxCell>
        <mxCell id="BEHY-oOq_oAfsIoeJHm4-2" value="" style="endArrow=classic;html=1;rounded=0;strokeColor=#99FF99;exitX=0;exitY=0.25;exitDx=0;exitDy=0;entryX=0.75;entryY=1;entryDx=0;entryDy=0;" edge="1" parent="1" source="k4hLhiPzZIHAdQ_BkXDs-16" target="k4hLhiPzZIHAdQ_BkXDs-14">
          <mxGeometry width="50" height="50" relative="1" as="geometry">
            <mxPoint x="700" y="400" as="sourcePoint" />
            <mxPoint x="289" y="697" as="targetPoint" />
          </mxGeometry>
        </mxCell>
        <mxCell id="BEHY-oOq_oAfsIoeJHm4-3" value="" style="endArrow=classic;html=1;rounded=0;strokeColor=#99FF99;exitX=0;exitY=1;exitDx=0;exitDy=0;entryX=0.75;entryY=1;entryDx=0;entryDy=0;" edge="1" parent="1" source="k4hLhiPzZIHAdQ_BkXDs-14" target="k4hLhiPzZIHAdQ_BkXDs-13">
          <mxGeometry width="50" height="50" relative="1" as="geometry">
            <mxPoint x="250" y="690" as="sourcePoint" />
            <mxPoint x="180" y="610" as="targetPoint" />
          </mxGeometry>
        </mxCell>
      </root>
    </mxGraphModel>
  </diagram>
</mxfile>
